<?xml version="1.0" encoding="utf-8"?>
<!-- Generator: Adobe Illustrator 16.0.3, SVG Export Plug-In . SVG Version: 6.00 Build 0)  -->
<!DOCTYPE svg PUBLIC "-//W3C//DTD SVG 1.1//EN" "http://www.w3.org/Graphics/SVG/1.1/DTD/svg11.dtd">
<svg version="1.1" id="レイヤー_1" xmlns="http://www.w3.org/2000/svg" xmlns:xlink="http://www.w3.org/1999/xlink" x="0px"
	 y="0px" width="140px" height="70px" viewBox="0 0 140 70" enable-background="new 0 0 140 70" xml:space="preserve">
<g>
	<path fill="#150405" d="M118.4,60.355v9.617h10.728V38.372C128.297,46.995,124.342,54.709,118.4,60.355"/>
	<path fill="#150405" d="M59.306,35.002L59.306,35.002v34.97h10.729v-9.829c-5.813-5.614-9.719-13.164-10.549-21.578
		C59.354,37.362,59.306,36.174,59.306,35.002"/>
	<path fill="#150405" d="M70.017,35.002c0-1.042,0.065-2.083,0.195-3.156c1.367-10.823,10.109-19.561,20.936-20.928
		c5.73-0.716,11.135,0.569,15.611,3.239c0.569-3.711,2.362-7.014,4.948-9.503c-4.167-2.409-8.856-3.988-13.837-4.476
		C83.904-1.204,71.434,5.63,64.661,16.402C68.047,21.789,70.017,28.167,70.017,35.002"/>
	<path fill="#150405" d="M1.645,24.36c0.813-2.572,1.937-4.996,3.305-7.275c1.594-2.668,3.548-5.125,5.778-7.273V0H0v35.002
		c0-1.856,0.146-3.677,0.423-5.451C0.7,27.777,1.107,26.036,1.645,24.36"/>
	<rect x="10.728" y="59.249" fill="#150405" width="24.289" height="10.724"/>
	<path fill="#150405" d="M139.691,13.457c-1.236-6.541-6.577-11.894-13.12-13.131c-5.763-1.089-11.135,0.766-14.863,4.345h0.017
		c-2.588,2.49-4.379,5.793-4.949,9.504c0,0-0.016,0-0.016-0.017c-0.293,1.855-0.276,3.824,0.114,5.825
		c1.138,6.021,5.778,11.033,11.607,12.756c0.161,0.051,0.308,0.083,0.472,0.131c-0.164-0.048-0.311-0.08-0.472-0.131
		c0.161,1.757,0.146,3.564-0.081,5.421c-1.158,9.225-7.701,16.922-16.313,19.834v0.017c-1.107,0.375-2.247,0.667-3.418,0.879h-0.018
		c-0.39,0.065-0.781,0.13-1.172,0.18c-0.488,0.065-0.961,0.097-1.434,0.146c-0.162,0.017-0.309,0.017-0.471,0.017
		c-0.311,0.017-0.635,0.033-0.945,0.033h-0.568c-0.277,0-0.554,0-0.832-0.017c-0.193-0.017-0.389-0.033-0.585-0.033
		c-0.261-0.016-0.521-0.031-0.784-0.064c-0.193-0.016-0.406-0.049-0.601-0.065c-0.243-0.032-0.503-0.065-0.749-0.097
		c-0.213-0.033-0.406-0.065-0.601-0.114c-0.245-0.05-0.491-0.098-0.716-0.147c-0.213-0.049-0.408-0.098-0.604-0.146
		c-0.228-0.049-0.473-0.114-0.699-0.179c-0.195-0.049-0.406-0.114-0.603-0.179c-0.228-0.064-0.456-0.146-0.668-0.212
		c-0.196-0.065-0.407-0.13-0.603-0.212c-0.211-0.08-0.422-0.162-0.65-0.242c-0.195-0.083-0.391-0.164-0.586-0.245
		c-0.212-0.081-0.408-0.179-0.619-0.276c-0.195-0.098-0.391-0.18-0.586-0.277c-0.197-0.098-0.392-0.195-0.586-0.31
		c-0.195-0.097-0.391-0.211-0.586-0.308c-0.18-0.1-0.358-0.212-0.537-0.326c-0.196-0.115-0.393-0.228-0.589-0.357
		c-0.161-0.099-0.308-0.211-0.47-0.31c-0.213-0.146-0.407-0.277-0.619-0.424c-0.066-0.049-0.132-0.099-0.195-0.146
		c-0.569-0.424-1.107-0.863-1.644-1.319c-0.05-0.031-0.081-0.065-0.13-0.112c-0.229-0.195-0.439-0.407-0.65-0.62
		c-0.1-0.097-0.196-0.179-0.277-0.276c-0.213-0.193-0.406-0.406-0.603-0.617c-0.099-0.098-0.195-0.212-0.296-0.309
		c-0.193-0.213-0.371-0.425-0.551-0.637c-0.098-0.112-0.197-0.227-0.293-0.342c-0.18-0.211-0.357-0.438-0.521-0.666
		c-0.082-0.113-0.178-0.228-0.263-0.359c-0.161-0.227-0.321-0.455-0.485-0.698c-0.082-0.114-0.163-0.245-0.244-0.358
		c-0.164-0.244-0.311-0.488-0.457-0.732c-0.064-0.113-0.146-0.244-0.211-0.357c-0.146-0.26-0.295-0.504-0.424-0.766
		c-0.066-0.113-0.129-0.242-0.18-0.357c-0.129-0.261-0.275-0.537-0.406-0.813c-0.049-0.114-0.098-0.228-0.163-0.342
		c-0.13-0.292-0.243-0.569-0.374-0.862c-0.05-0.098-0.081-0.213-0.114-0.31c-0.112-0.31-0.228-0.618-0.341-0.928
		c-0.033-0.081-0.049-0.179-0.082-0.259c-0.115-0.344-0.212-0.67-0.309-1.011c-0.017-0.048-0.017-0.097-0.033-0.146
		c-0.553-2.035-0.863-4.183-0.863-6.395c0-6.834-1.97-13.198-5.355-18.6C58.476,6.558,47.502,0,35.018,0
		c-9.442,0-17.99,3.743-24.289,9.795c-2.248,2.165-4.185,4.605-5.779,7.291c-1.367,2.278-2.475,4.702-3.305,7.274
		c-0.537,1.676-0.945,3.417-1.221,5.191C0.147,31.326,0,33.146,0,35.002v5.386h10.729v-5.386c0-13.409,10.875-24.278,24.289-24.278
		c13.414,0,24.288,10.869,24.288,24.278h0.017c0,1.172,0.048,2.375,0.162,3.564c0.83,8.395,4.737,15.962,10.549,21.576
		c5.519,5.32,12.729,8.885,20.706,9.683c3.939,0.39,7.75,0.113,11.348-0.7c6.234-1.416,11.836-4.49,16.313-8.755
		c5.941-5.646,9.896-13.359,10.728-21.999v-5.988C136.42,29.649,141.304,21.984,139.691,13.457 M125.871,33.213h-0.049
		c-0.357,0.048-0.717,0.097-1.09,0.13c-0.049,0-0.099,0-0.147,0.016c-0.342,0.032-0.667,0.048-1.009,0.063h-0.312
		c-0.291,0-0.567,0-0.86-0.016c-0.18-0.016-0.36-0.032-0.537-0.048c-0.213-0.016-0.44-0.032-0.652-0.049
		c-0.406-0.049-0.813-0.113-1.206-0.179c0.407,0.083,0.814,0.146,1.206,0.179c0.212,0.034,0.439,0.034,0.652,0.049
		c0.177,0.016,0.357,0.032,0.537,0.048c0.293,0.016,0.569,0.016,0.86,0.016h0.312c0.342,0,0.684-0.032,1.009-0.063
		c0.049,0,0.099,0,0.147-0.016c0.357-0.034,0.732-0.083,1.09-0.13H125.871c1.123-0.179,2.213-0.474,3.238-0.863
		C128.084,32.739,126.994,33.034,125.871,33.213 M129.404,21.773c-1.516,1.823-3.744,2.88-6.121,2.88
		c-0.537,0-1.092-0.049-1.646-0.163c-2.994-0.57-5.564-3.157-6.135-6.135c-0.637-3.32,0.764-5.615,1.658-6.688
		c1.517-1.822,3.746-2.88,6.123-2.88c0.536,0,1.092,0.049,1.645,0.163c2.995,0.569,5.567,3.156,6.137,6.151
		C131.682,18.404,130.284,20.699,129.404,21.773"/>
	<polygon fill="#150405" points="10.728,45.825 0,45.825 0,58.777 0,69.972 10.728,69.972 10.728,58.777 	"/>
</g>
</svg>
